<svg width="150" height="150" viewBox="0 0 150 150" fill="none" xmlns="http://www.w3.org/2000/svg">
<path d="M0 75C0 33.5786 33.5786 0 75 0C116.421 0 150 33.5786 150 75C150 116.421 116.421 150 75 150C33.5786 150 0 116.421 0 75Z" fill="#E9EAF1"/>
<g clip-path="url(#clip0_222_24053)">
<path d="M0 75C0 33.5786 33.5786 1.52588e-05 75 1.52588e-05V1.52588e-05C116.421 1.52588e-05 150 33.5786 150 75V75C150 116.421 116.421 150 75 150V150C33.5786 150 0 116.421 0 75V75Z" fill="#F7C0B5"/>
<path d="M116.9 138.152C116.55 138.402 116.15 138.652 115.8 138.902C115.4 139.152 115.05 139.402 114.65 139.602C114.3 139.802 114 140.002 113.65 140.202C113.6 140.252 113.55 140.252 113.5 140.302C112.35 141.002 111.15 141.652 109.95 142.252C109.6 142.452 109.2 142.652 108.85 142.802C108.85 142.802 108.8 142.852 108.75 142.852C108.35 143.052 107.95 143.252 107.55 143.452C106.75 143.852 105.9 144.202 105.1 144.552C104.7 144.752 104.25 144.902 103.85 145.052C103.45 145.202 103 145.402 102.6 145.552C102.2 145.702 101.75 145.902 101.35 146.052C101.35 146.052 101.35 146.052 101.3 146.052C100.9 146.202 100.45 146.352 100.05 146.502C99.1499 146.802 98.1999 147.102 97.2999 147.402C96.9999 147.502 96.6499 147.602 96.3499 147.702C95.3999 148.002 94.4499 148.252 93.4999 148.452C93.1499 148.552 92.7999 148.602 92.3999 148.702C91.4999 148.902 90.5499 149.102 89.6499 149.302C89.4499 149.352 89.2999 149.352 89.0999 149.402C88.7999 149.452 88.4499 149.502 88.1499 149.552C87.6999 149.602 87.2999 149.702 86.8499 149.752C86.6499 149.802 86.4499 149.802 86.2499 149.852C85.9999 149.902 85.6999 149.952 85.3999 149.952C84.5999 150.052 83.7499 150.152 82.9499 150.252C82.6999 150.302 82.3999 150.302 82.1499 150.352H82.0999C81.7499 150.402 81.3999 150.402 81.0499 150.452C80.6999 150.502 80.3499 150.502 79.9999 150.502C79.7999 150.502 79.5499 150.552 79.3499 150.552C78.9499 150.552 78.5999 150.602 78.2499 150.602C77.7499 150.602 77.2999 150.652 76.7999 150.652C76.2999 150.652 75.8499 150.652 75.3499 150.652C74.9999 150.652 74.6499 150.652 74.2999 150.652C53.2499 150.352 34.2499 141.402 20.75 127.202C20.75 127.202 20.75 127.152 20.7 127.152C22.25 124.102 27.9999 118.602 33.9999 114.052C41.5999 108.302 52.3499 104.752 52.3499 104.752C52.3499 104.752 59.3999 103.602 85.5499 109.052C105.5 113.252 114 130.302 116.9 138.152Z" fill="#FEE4BF"/>
<path d="M91.0998 122.902C90.0498 128.052 83.2498 131.102 71.7998 126.502C57.7498 120.802 52.3499 104.752 52.3499 104.752C51.5999 93.2518 49.8499 83.4018 49.8499 83.4018C66.0998 82.0018 85.2998 101.002 85.2998 101.002L87.4998 110.402C87.6998 111.202 88.0998 111.902 88.6998 112.402C89.7498 114.202 91.7998 119.602 91.0998 122.902Z" fill="#FEE4BF"/>
<path d="M88.7 112.452C79.15 111.952 72.1 110.552 64.55 97.0018C70.95 102.652 78.5 104.802 86.45 105.802L87.5 110.402C87.7 111.252 88.1 111.952 88.7 112.452Z" fill="#EFBD9C"/>
<path d="M108.45 52.2019C109.35 56.4019 109.8 59.8019 107.35 71.0019C104.9 82.2019 109.6 93.4019 97.7999 103.652C89.8499 110.552 75.9499 111.852 64.8499 104.302C61.0999 101.752 57.6499 98.2019 54.8499 93.5519C52.6499 89.9019 50.0999 86.4519 47.2499 83.3019C43.2999 79.0019 38.5499 70.3519 40.8999 55.0519C44.6999 30.1519 69.3499 27.3019 83.8999 30.0519C98.4499 32.8019 106 41.1019 108.45 52.2019Z" fill="#FEE4BF"/>
<path d="M60.6 71.7518C60.6 71.7518 59.05 64.2518 51.75 65.1518C45.45 65.9518 43.25 81.0518 57.55 85.2518" fill="#FEE4BF"/>
<path fill-rule="evenodd" clip-rule="evenodd" d="M54.6973 70.2834C55.5411 70.6298 56.0152 71.354 56.2301 72.2289C56.4382 73.0761 56.4259 74.1336 56.2728 75.339C56.2027 76.0699 56.4902 76.6586 56.8349 77.0946C57.0075 77.3128 57.1866 77.4819 57.3219 77.5954C57.3889 77.6517 57.4436 77.693 57.479 77.7187C57.4967 77.7315 57.5094 77.7403 57.5164 77.745C57.5176 77.7458 57.5187 77.7465 57.5195 77.7471C57.5207 77.7479 57.5214 77.7484 57.5219 77.7487C57.8812 77.9807 57.9858 78.4597 57.7552 78.8205C57.524 79.1824 57.0432 79.2884 56.6813 79.0572L57.0751 78.4408C56.6813 79.0572 56.681 79.057 56.6807 79.0568L56.6788 79.0556L56.6757 79.0535C56.6733 79.052 56.6706 79.0502 56.6674 79.0481C56.661 79.0439 56.6529 79.0385 56.6432 79.032C56.6239 79.0188 56.5981 79.001 56.567 78.9784C56.5048 78.9334 56.4204 78.8692 56.3218 78.7865C56.1258 78.6219 55.8674 78.3784 55.615 78.0592C55.1112 77.4221 54.5997 76.439 54.7262 75.1745C54.7269 75.1675 54.7277 75.1604 54.7286 75.1534C54.8741 74.0135 54.861 73.1749 54.7198 72.5998C54.5849 72.0508 54.3599 71.8256 54.1055 71.7216L54.0999 71.7193C53.5425 71.4862 53.189 71.509 52.9701 71.5815C52.7436 71.6564 52.5473 71.8223 52.3791 72.0756C52.2088 72.3322 52.0933 72.6421 52.0276 72.9185C51.9952 73.0543 51.9778 73.1702 51.9706 73.2526C51.9675 73.2877 51.9668 73.3102 51.9667 73.3221C52.0343 73.7189 51.7856 74.107 51.3886 74.2063C50.9719 74.3104 50.5497 74.0571 50.4456 73.6405C50.3994 73.4557 50.4096 73.2505 50.4213 73.1166C50.4358 72.9519 50.4664 72.7611 50.5145 72.5586C50.6097 72.1585 50.7848 71.6653 51.0833 71.2156C51.3839 70.7627 51.8344 70.3192 52.4814 70.105C53.1352 69.8887 53.8808 69.9425 54.6973 70.2834Z" fill="#423232"/>
<path d="M95.25 83.2518C95.25 83.2518 97.15 83.3518 98.95 81.2018C99.95 80.0019 100.8 78.5019 100.25 78.0519C99.7 77.5519 90.65 78.9519 90.05 80.1519C89.45 81.3518 92.95 83.2518 95.25 83.2518Z" fill="#EFBD9C"/>
<path fill-rule="evenodd" clip-rule="evenodd" d="M97.5273 66.4351C97.5273 66.4351 97.5273 66.4351 97.5273 66.4351C97.5273 66.435 97.5273 66.4347 97.5273 66.4346C97.5178 66.0057 97.1626 65.6654 96.7335 65.6744C96.3041 65.6835 95.9634 66.0389 95.9724 66.4682L96.7499 66.4519C95.9724 66.4682 95.9724 66.4685 95.9725 66.4688L95.9725 66.471L95.9726 66.4755C95.9727 66.4791 95.9728 66.4838 95.973 66.4896C95.9734 66.5014 95.9739 66.5176 95.9748 66.5383C95.9765 66.5797 95.9793 66.6387 95.984 66.7144C95.9934 66.8658 96.0102 67.0839 96.04 67.3604C96.0997 67.9132 96.2118 68.7006 96.4216 69.6562C96.841 71.566 97.6531 74.1565 99.2257 76.8895M97.5273 66.4351C97.5273 66.4351 97.5273 66.4351 97.5273 66.4351L97.5275 66.4417C97.5277 66.4483 97.5281 66.4593 97.5287 66.4747C97.53 66.5055 97.5323 66.5537 97.5363 66.6182C97.5443 66.7473 97.5591 66.9417 97.5863 67.1934C97.6406 67.6968 97.7442 68.4282 97.9406 69.3226C98.3337 71.1127 99.0966 73.5471 100.574 76.114L100.574 76.1145C101.435 77.6133 101.163 79.4862 100.145 80.9985C99.1156 82.5284 97.2913 83.7665 94.8623 84.1213C94.4373 84.1834 94.0425 83.8892 93.9804 83.4643C93.9184 83.0393 94.2125 82.6445 94.6375 82.5824C96.6584 82.2872 98.0842 81.2754 98.8547 80.1302C99.637 78.9678 99.7146 77.7409 99.2259 76.8897" fill="#423232"/>
<path d="M104.6 94.2018C104.6 94.2518 104.6 94.2518 104.6 94.2018C104.55 94.2518 104.55 94.2518 104.6 94.2018C103.35 97.4518 101.3 100.552 97.7999 103.602C89.8499 110.502 75.9499 111.802 64.8499 104.252C63.5999 103.402 62.3999 102.452 61.2499 101.402C60.4499 100.402 59.7499 99.3518 59.1499 98.2518C55.5499 91.5018 57.0999 85.2019 57.0999 85.2019C57.0999 85.2019 59.1499 85.2518 61.5999 90.0518C63.6499 94.0518 71.5499 93.9018 74.7999 86.4019C78.3999 78.0519 87.3999 81.7019 89.4499 82.5019C91.4999 83.3019 94.6999 83.3019 94.6999 83.3019C102.8 83.2019 100.35 88.6518 101.2 91.6518C102.45 95.7518 104.6 94.2018 104.6 94.2018Z" fill="#423232"/>
<path d="M133.71 169.193H7.3103C7.3103 169.193 7.8603 145.893 15.6603 129.443C21.4103 117.243 36.2103 110.293 46.5103 106.743C48.8103 105.943 50.9103 105.343 52.6103 104.893C53.1603 106.393 58.7103 121.093 72.0103 126.493C83.4603 131.143 90.2603 128.043 91.3103 122.893C91.9603 119.593 89.9103 114.193 88.8603 112.443C88.2603 111.943 87.8603 111.193 87.6603 110.443L87.2603 108.793C88.1603 108.593 89.0103 108.343 89.9103 108.093C90.3603 108.193 90.8103 108.293 91.2603 108.393C97.7103 109.943 107.26 113.693 118.46 123.143C131.41 133.943 133.71 169.193 133.71 169.193Z" fill="#FFDE55"/>
<path d="M93.1103 136.493C91.3603 136.993 85.2603 130.643 84.0103 129.543C82.8603 130.843 74.7603 139.993 70.7603 139.393C66.3603 138.743 55.1103 131.193 49.4103 119.343C46.2603 112.843 46.1603 108.893 46.5103 106.743C46.6603 105.743 46.9603 105.093 47.1103 104.743C47.6103 103.593 51.2103 99.1431 52.1103 99.1931V99.2431C52.5603 104.043 54.1103 108.693 56.7103 112.743C59.9103 117.693 64.9603 123.643 72.0103 126.493C83.4603 131.143 89.4103 126.543 90.4103 121.393C91.0603 118.093 89.9103 114.193 88.8603 112.443C88.2603 111.943 87.8603 111.193 87.6603 110.443L87.2603 108.793C88.1603 108.593 89.0103 108.343 89.9103 108.093C90.1603 107.993 90.4603 107.943 90.7103 107.843C90.8603 108.043 91.0603 108.243 91.2103 108.443C93.3103 110.843 95.5103 114.143 96.7103 119.743C98.7603 128.693 95.0603 135.893 93.1103 136.493Z" fill="#423232"/>
<path d="M83.8103 135.893C84.4731 135.893 85.0103 135.356 85.0103 134.693C85.0103 134.03 84.4731 133.493 83.8103 133.493C83.1476 133.493 82.6104 134.03 82.6104 134.693C82.6104 135.356 83.1476 135.893 83.8103 135.893Z" fill="#423232"/>
<path d="M84.2603 140.593C84.923 140.593 85.4603 140.056 85.4603 139.393C85.4603 138.73 84.923 138.193 84.2603 138.193C83.5976 138.193 83.0603 138.73 83.0603 139.393C83.0603 140.056 83.5976 140.593 84.2603 140.593Z" fill="#423232"/>
<path fill-rule="evenodd" clip-rule="evenodd" d="M29.7165 149.871C30.1429 149.819 30.5304 150.123 30.5821 150.549L32.8321 169.099C32.8838 169.526 32.5801 169.913 32.1538 169.965C31.7275 170.017 31.3399 169.713 31.2882 169.287L29.0382 150.737C28.9865 150.31 29.2902 149.923 29.7165 149.871Z" fill="#544D4D"/>
<path fill-rule="evenodd" clip-rule="evenodd" d="M120.08 144.638C120.079 144.638 120.079 144.639 120.079 144.639L120.077 144.644C120.075 144.649 120.072 144.658 120.067 144.67C120.058 144.694 120.043 144.731 120.025 144.78C119.987 144.879 119.934 145.027 119.87 145.217C119.743 145.598 119.577 146.144 119.424 146.801C119.116 148.123 118.872 149.848 119.082 151.548C119.145 152.057 119.225 152.603 119.311 153.191C119.837 156.769 120.588 161.879 118.97 169.358C118.879 169.777 118.465 170.044 118.046 169.953C117.626 169.862 117.359 169.448 117.45 169.029C119.006 161.84 118.296 156.992 117.774 153.428C117.686 152.83 117.604 152.269 117.538 151.738C117.298 149.788 117.579 147.864 117.909 146.448C118.075 145.736 118.256 145.142 118.395 144.724C118.465 144.514 118.525 144.349 118.569 144.234C118.59 144.176 118.608 144.131 118.62 144.1C118.626 144.084 118.631 144.072 118.634 144.063L118.639 144.053L118.64 144.049L118.641 144.048C118.641 144.048 118.641 144.048 119.36 144.343L118.641 144.048C118.804 143.65 119.259 143.461 119.656 143.624C120.053 143.787 120.242 144.241 120.08 144.638C120.08 144.638 120.08 144.638 120.08 144.638C120.08 144.638 120.08 144.638 120.08 144.638C120.08 144.638 120.08 144.638 120.08 144.638Z" fill="#544D4D"/>
<path d="M80.7361 68.1055C80.7361 68.1555 80.7361 68.2055 80.7361 68.2055L80.6861 69.6055C80.6361 70.8055 79.6361 71.7055 78.4361 71.6555C77.2361 71.6055 76.3361 70.5555 76.4361 69.4055L76.4861 68.0055C76.4861 67.7555 76.5861 67.4555 76.6861 67.2555L80.6861 67.4555C80.6861 67.6555 80.7361 67.8555 80.7361 68.1055Z" fill="#423232"/>
<path d="M101.636 69.2055L101.586 70.5055C101.536 71.6055 100.586 72.4555 99.4858 72.4055C98.3858 72.3555 97.5358 71.4055 97.5858 70.3055L97.6358 69.0055C97.6358 68.7555 97.6858 68.5055 97.7858 68.3055L101.536 68.4555C101.636 68.7055 101.636 68.9555 101.636 69.2055Z" fill="#423232"/>
<path d="M85.7359 61.2555C86.8359 61.4055 87.6859 60.2555 87.2859 59.1555C87.0859 58.5555 86.7359 58.0055 86.1859 57.6555C84.4859 56.6055 78.1359 56.5055 74.7859 58.9055C71.8359 61.1055 80.7359 60.5555 85.7359 61.2555Z" fill="#423232"/>
<path d="M99.5858 61.8055C98.6858 61.8055 98.1358 60.6555 98.5858 59.7055C98.8358 59.2055 99.1858 58.7555 99.6858 58.5055C101.236 57.7555 105.386 58.2055 107.236 60.7555C108.886 63.0055 103.736 61.7555 99.5858 61.8055Z" fill="#423232"/>
<path fill-rule="evenodd" clip-rule="evenodd" d="M74.9595 67.1623C74.9833 66.7335 75.3502 66.4052 75.779 66.429L76.672 66.4787L80.665 66.6284L80.6707 66.6286L84.0207 66.7786C84.4497 66.7978 84.7819 67.1612 84.7627 67.5902C84.7435 68.0193 84.3801 68.3515 83.9511 68.3323L80.6039 68.1824L76.6067 68.0325C76.6021 68.0323 76.5974 68.0321 76.5927 68.0319L75.6927 67.9819C75.2639 67.958 74.9356 67.5911 74.9595 67.1623Z" fill="#423232"/>
<path fill-rule="evenodd" clip-rule="evenodd" d="M96.8584 68.3055C96.8584 67.8761 97.2065 67.5279 97.636 67.5279H97.786C97.7964 67.5279 97.8067 67.5281 97.8171 67.5285L101.567 67.6785L101.571 67.6787L103.771 67.7787C104.2 67.7982 104.532 68.1618 104.513 68.5908C104.493 69.0198 104.13 69.3518 103.701 69.3323L101.503 69.2324L97.7705 69.0831H97.636C97.2065 69.0831 96.8584 68.735 96.8584 68.3055Z" fill="#423232"/>
<path d="M92.7875 89.1744C92.8393 90.0039 92.2172 91.4554 91.0767 92.4922C85.2187 88.9152 82.5749 90.7815 82.5749 90.7815C80.5012 87.6192 80.9678 83.3164 85.9964 86.5824C89.5215 88.8115 91.647 89.1744 92.7875 89.1744Z" fill="#423232"/>
<path d="M91.0768 92.4922C89.8326 93.5809 87.9664 94.2548 85.4262 93.218C84.2339 92.7514 83.3007 91.8183 82.575 90.7815C82.575 90.7815 85.2188 88.9152 91.0768 92.4922Z" fill="#FE9DAB"/>
<path fill-rule="evenodd" clip-rule="evenodd" d="M82.1477 84.8039C83.2577 84.3982 84.7135 84.8324 86.4161 85.9278C89.1471 87.6724 90.9801 88.2127 92.0766 88.344C92.6235 88.4095 92.9899 88.3738 93.1985 88.3338C93.3033 88.3137 93.3704 88.2922 93.4024 88.2805C93.4121 88.277 93.4187 88.2743 93.4223 88.2729C93.7949 88.0845 94.2526 88.2246 94.4546 88.5936C94.6609 88.9703 94.5228 89.4428 94.1461 89.6491L93.7775 88.976C94.1461 89.6491 94.1453 89.6496 94.1445 89.65L94.1429 89.6509L94.1394 89.6527C94.137 89.654 94.1345 89.6554 94.1319 89.6567C94.1265 89.6595 94.1206 89.6626 94.1141 89.6658C94.1012 89.6723 94.0859 89.6797 94.0682 89.6877C94.0329 89.7037 93.9881 89.7224 93.9338 89.7422C93.8258 89.7814 93.6806 89.8246 93.4962 89.8603C93.4111 90.2737 93.252 90.7132 93.0391 91.1385C92.6899 91.836 92.1613 92.5659 91.4505 93.1693C89.9921 94.4074 87.8197 95.062 85.0803 93.9379C83.72 93.3844 82.6385 92.3371 81.8901 91.1924C81.1441 90.0513 80.6848 88.746 80.6318 87.6034C80.5805 86.4967 80.9264 85.2502 82.1477 84.8039ZM91.8804 89.8869C90.4889 89.718 88.4374 89.0647 85.5778 87.2377L85.5757 87.2364C83.9352 86.1808 83.052 86.1293 82.6815 86.2646C82.4221 86.3594 82.1459 86.681 82.1854 87.5314C82.2231 88.3457 82.5673 89.3862 83.1918 90.3414C83.8138 91.2927 84.6694 92.0919 85.6673 92.4977L85.6697 92.4987C87.8546 93.3956 89.4143 92.8579 90.444 91.9837C90.9774 91.5309 91.382 90.9744 91.6484 90.4423C91.7482 90.2429 91.8243 90.0558 91.8804 89.8869Z" fill="#423232"/>
<path fill-rule="evenodd" clip-rule="evenodd" d="M83.0118 91.4247C82.6619 91.6626 82.1845 91.577 81.9395 91.2299C81.6918 90.8791 81.7755 90.3939 82.1264 90.1462L82.5701 90.7749C82.1264 90.1462 82.127 90.1458 82.1276 90.1453L82.1289 90.1444L82.1317 90.1425L82.1381 90.1381C82.1427 90.1349 82.148 90.1313 82.154 90.1274C82.166 90.1195 82.1808 90.11 82.1984 90.0991C82.2336 90.0775 82.28 90.0505 82.3378 90.0201C82.4535 89.9592 82.6146 89.8848 82.822 89.812C83.2381 89.666 83.8348 89.5289 84.6181 89.5179C86.1886 89.496 88.4567 89.9813 91.4819 91.8286C91.8485 92.0524 91.9641 92.5309 91.7403 92.8975C91.5165 93.264 91.038 93.3797 90.6714 93.1559C87.8386 91.4261 85.8558 91.0561 84.6398 91.073C84.03 91.0815 83.5996 91.1874 83.3369 91.2795C83.2049 91.3258 83.1136 91.3693 83.0618 91.3965C83.0359 91.4101 83.0198 91.4197 83.0134 91.4237C83.0128 91.4241 83.0123 91.4244 83.0118 91.4247Z" fill="#423232"/>
<path d="M118.365 46.2176C118.365 39.9176 114.115 34.6676 108.365 33.0176C108.665 31.7676 108.715 30.4676 108.415 29.1176C107.415 24.7676 103.515 21.7176 99.0653 22.0176C97.3153 22.1176 95.6654 22.7676 94.3154 23.7676C92.2154 18.9176 87.3654 15.5176 81.7654 15.5176C75.8154 15.5176 70.7654 19.3176 68.8654 24.6176C66.7654 22.1176 63.6154 20.5176 60.1154 20.5176C54.0154 20.5176 49.0154 25.3176 48.7154 31.3676C47.7654 31.0676 46.7154 30.9176 45.6654 30.9676C41.6154 31.2176 38.3154 34.5176 38.0154 38.5676C37.9154 39.9176 38.1654 41.2176 38.6654 42.4176C32.9654 43.0176 28.5154 47.8676 28.5154 53.7176C28.5154 58.1176 31.0154 61.9676 34.7154 63.8676C33.2154 65.3676 32.2654 67.4176 32.2654 69.6676C32.2654 73.8676 35.4654 77.3676 39.5654 77.8176C39.3154 78.6176 39.2154 79.5676 39.5154 80.5176C39.9654 82.1676 41.3154 83.4676 42.9654 83.8176C43.9654 84.0176 44.9154 83.9176 45.7654 83.5676C46.2154 84.2176 46.6654 84.7676 47.0654 85.2676C47.5654 85.8676 47.9654 86.4176 48.3654 86.9676C50.6654 90.2676 55.9154 88.8176 56.1154 84.8176C56.1154 84.7676 56.1154 84.7676 56.1154 84.7176C43.6154 79.9176 45.8654 65.9676 51.9654 65.1676C58.3654 64.3676 60.3654 70.0676 60.7154 71.4676C67.5654 67.0676 57.8154 51.2176 67.8654 46.5176C76.8154 42.3676 86.2154 48.6676 97.7153 50.2176C101.965 50.8176 105.965 46.6176 107.765 48.9676C108.115 50.0176 108.415 51.0676 108.665 52.1676C109.465 55.7176 109.865 58.7176 108.515 66.3176C111.815 64.5176 113.415 61.8176 113.715 59.1676C113.815 58.2676 113.815 57.3176 113.765 56.4176C116.565 53.9676 118.365 50.3176 118.365 46.2176Z" fill="#423232"/>
</g>
<defs>
<clipPath id="clip0_222_24053">
<path d="M0 75C0 33.5786 33.5786 1.52588e-05 75 1.52588e-05V1.52588e-05C116.421 1.52588e-05 150 33.5786 150 75V75C150 116.421 116.421 150 75 150V150C33.5786 150 0 116.421 0 75V75Z" fill="white"/>
</clipPath>
</defs>
</svg>
