<svg width="24" height="24" viewBox="0 0 24 24" fill="none" xmlns="http://www.w3.org/2000/svg">
<path d="M20.2694 0.765168C20.6841 0.268959 21.236 -0.00536544 21.8086 7.95325e-05C22.3812 0.00552451 22.9298 0.290314 23.3385 0.794353C23.7472 1.29839 23.9841 1.98226 23.9992 2.70165C24.0144 3.42103 23.8065 4.11968 23.4196 4.65016L11.6726 23.1131C11.4706 23.3865 11.2268 23.6059 10.9558 23.7582C10.6848 23.9106 10.3921 23.9926 10.0953 23.9995C9.79843 24.0064 9.50354 23.938 9.22823 23.7985C8.95292 23.6589 8.70283 23.4509 8.49292 23.1871L0.702785 13.3969C0.485843 13.1429 0.311839 12.8365 0.191154 12.4961C0.0704689 12.1557 0.0055747 11.7883 0.000343637 11.4157C-0.00488742 11.0431 0.049652 10.673 0.160707 10.3274C0.271762 9.98189 0.437058 9.66801 0.646735 9.4045C0.856411 9.14099 1.10617 8.93326 1.38112 8.79369C1.65606 8.65412 1.95056 8.58558 2.24704 8.59215C2.54352 8.59873 2.83591 8.68028 3.10677 8.83195C3.37763 8.98362 3.6214 9.2023 3.82355 9.47494L9.98853 17.219L20.2134 0.846569L20.2694 0.765168Z" fill="black"/>
</svg>
